<?xml version="1.0" standalone="no"?>
<!DOCTYPE svg PUBLIC "-//W3C//DTD SVG 20010904//EN"
 "http://www.w3.org/TR/2001/REC-SVG-20010904/DTD/svg10.dtd">
<svg version="1.0" xmlns="http://www.w3.org/2000/svg"
 width="300.000000pt" height="300.000000pt" viewBox="0 0 300.000000 300.000000"
 preserveAspectRatio="xMidYMid meet">
<metadata>
Created by potrace 1.10, written by Peter Selinger 2001-2011
</metadata>
<g transform="translate(0.000000,300.000000) scale(0.100000,-0.100000)"
fill="#000000" stroke="none">
<path d="M990 1797 c-130 -30 -236 -114 -292 -234 -58 -123 -49 -282 23 -395
42 -66 120 -135 187 -166 74 -34 211 -42 293 -19 80 24 175 84 266 170 l32 30
59 -54 c74 -67 170 -125 241 -145 85 -25 221 -16 294 20 88 43 161 115 204
204 37 73 38 80 38 181 0 98 -2 111 -31 171 -61 128 -161 208 -295 236 -150
32 -299 -16 -437 -141 l-74 -66 -63 60 c-136 127 -298 181 -445 148z m210 -49
c70 -20 160 -79 232 -152 l74 -75 19 30 c31 48 139 135 209 169 112 55 254 58
360 6 68 -33 139 -106 174 -176 24 -49 27 -66 27 -160 0 -93 -3 -112 -27 -162
-34 -74 -113 -152 -186 -186 -81 -37 -202 -42 -291 -12 -82 27 -162 82 -234
160 l-57 61 -57 -61 c-72 -78 -152 -133 -234 -160 -88 -30 -210 -25 -289 11
-73 34 -154 114 -188 186 -24 52 -27 70 -27 163 0 94 3 111 28 161 33 68 119
152 184 181 80 35 194 42 283 16z"/>
<path d="M1005 1598 c-146 -53 -198 -239 -97 -350 55 -61 102 -81 181 -76 101
5 202 67 277 169 l36 49 -32 39 c-47 60 -125 127 -178 152 -53 26 -141 34
-187 17z m185 -63 c58 -30 150 -122 150 -151 0 -29 -100 -120 -165 -150 -139
-65 -275 13 -275 158 0 144 145 216 290 143z"/>
<path d="M1844 1596 c-69 -22 -145 -83 -228 -183 -18 -22 -18 -23 18 -71 75
-103 176 -165 277 -170 80 -5 129 16 182 79 100 116 46 298 -102 348 -43 14
-95 13 -147 -3z m166 -51 c118 -61 122 -234 7 -308 -53 -35 -122 -36 -192 -3
-66 30 -165 121 -165 151 0 28 90 119 145 148 75 38 146 42 205 12z"/>
</g>
</svg>
